HIERARCHY
ROOT reference
{
  OFFSET 0 0 0
  CHANNELS 6 Xposition Yposition Zposition Zrotation Xrotation Yrotation
  JOINT Hips
  {
    OFFSET 4.23622 87.5229 82.7325
    CHANNELS 6 Xposition Yposition Zposition Zrotation Xrotation Yrotation
    JOINT Spine
    {
      OFFSET 0 7.86299 0
      CHANNELS 6 Xposition Yposition Zposition Zrotation Xrotation Yrotation
      JOINT Spine1
      {
        OFFSET 0 22.6654 0
        CHANNELS 6 Xposition Yposition Zposition Zrotation Xrotation Yrotation
        JOINT Neck
        {
          OFFSET 0 22.5723 2.05203
          CHANNELS 6 Xposition Yposition Zposition Zrotation Xrotation Yrotation
          JOINT Head
          {
            OFFSET 0 13.4246 -1.9178
            CHANNELS 6 Xposition Yposition Zposition Zrotation Xrotation Yrotation
            End Site
            {
              OFFSET 0 23.9725 0
            }
          }
        }
        JOINT LeftShoulder
        {
          OFFSET 3.7941 20.1358 -0.319195
          CHANNELS 6 Xposition Yposition Zposition Zrotation Xrotation Yrotation
          JOINT LeftArm
          {
            OFFSET 12.7665 0 0
            CHANNELS 6 Xposition Yposition Zposition Zrotation Xrotation Yrotation
            JOINT LeftForeArm
            {
              OFFSET 28.396 0 0
              CHANNELS 6 Xposition Yposition Zposition Zrotation Xrotation Yrotation
              JOINT LeftHand
              {
                OFFSET 28.7929 0 0
                CHANNELS 6 Xposition Yposition Zposition Zrotation Xrotation Yrotation
                End Site
                {
                  OFFSET 14.3835 0 0
                }
              }
            }
          }
        }
        JOINT RightShoulder
        {
          OFFSET -3.85764 20.1358 -0.319195
          CHANNELS 6 Xposition Yposition Zposition Zrotation Xrotation Yrotation
          JOINT RightArm
          {
            OFFSET -12.7665 0 0
            CHANNELS 6 Xposition Yposition Zposition Zrotation Xrotation Yrotation
            JOINT RightForeArm
            {
              OFFSET -28.396 0 0
              CHANNELS 6 Xposition Yposition Zposition Zrotation Xrotation Yrotation
              JOINT RightHand
              {
                OFFSET -28.7929 0 0
                CHANNELS 6 Xposition Yposition Zposition Zrotation Xrotation Yrotation
                End Site
                {
                  OFFSET -14.3835 0 0
                }
              }
            }
          }
        }
      }
    }
    JOINT LeftUpLeg
    {
      OFFSET 9.58901 0 0
      CHANNELS 6 Xposition Yposition Zposition Zrotation Xrotation Yrotation
      JOINT LeftLeg
      {
        OFFSET 0 -41.7092 0
        CHANNELS 6 Xposition Yposition Zposition Zrotation Xrotation Yrotation
        JOINT LeftFoot
        {
          OFFSET 0 -41.5308 0
          CHANNELS 6 Xposition Yposition Zposition Zrotation Xrotation Yrotation
          JOINT LeftToeBase
          {
            OFFSET 0 -6.23286 14.3835
            CHANNELS 6 Xposition Yposition Zposition Zrotation Xrotation Yrotation
            End Site
            {
              OFFSET 0 0 3.8356
            }
          }
        }
      }
    }
    JOINT RightUpLeg
    {
      OFFSET -9.58901 0 0
      CHANNELS 6 Xposition Yposition Zposition Zrotation Xrotation Yrotation
      JOINT RightLeg
      {
        OFFSET 0 -41.7092 0
        CHANNELS 6 Xposition Yposition Zposition Zrotation Xrotation Yrotation
        JOINT RightFoot
        {
          OFFSET 0 -41.5308 0
          CHANNELS 6 Xposition Yposition Zposition Zrotation Xrotation Yrotation
          JOINT RightToeBase
          {
            OFFSET 0 -6.23286 14.3835
            CHANNELS 6 Xposition Yposition Zposition Zrotation Xrotation Yrotation
            End Site
            {
              OFFSET 0 0 3.8356
            }
          }
        }
      }
    }
  }
}
MOTION
Frames:	4
Frame Time:	0.004
0 0 0 0 0 -0 -19.576 89.5748 -143.435 4.79874 2.20258 1.66224 2.66454e-015 7.86299 0 -6.3426 7.98694 8.73423 0 22.6654 -2.84217e-014 2.82973 -1.74407 8.33428 0 22.5723 2.05203 -3.21816 21.3479 -7.75096 7.10543e-015 13.4246 -1.9178 8.54346 17.0255 -8.30247 3.7941 20.1358 -0.319195 -15.5231 38.3994 15.7634 12.7665 -1.42109e-014 2.84217e-014 -35.0543 23.391 -7.50329 28.396 -7.10543e-015 -2.84217e-014 11.8299 -12.7085 -63.579 28.7929 7.10543e-015 0 13.232 -6.41479 -8.45878 -3.85764 20.1358 -0.319195 6.23599 34.9336 10.1895 -12.7665 0 0 18.2087 21.634 24.8367 -28.396 0 0 -29.6123 -32.4438 76.5224 -28.7929 0 0 -4.85934 -9.80378 -5.54198 9.58901 1.42109e-014 -2.84217e-014 26.1279 -43.4824 1.35475 7.10543e-015 -41.7092 0 -95.4175 55.31 60.879 1.77636e-015 -41.5308 0 16.4807 -24.1841 27.5838 0 -6.23286 14.3835 -7.95139e-016 1.59028e-015 6.36111e-015 -9.58901 0 -2.84217e-014 -6.16036 -0.157215 -2.55203 7.10543e-015 -41.7092 0 0.89365 3.41094 -5.68913 7.10543e-015 -41.5308 0 4.33145 -5.20358 -9.17388 0 -6.23286 14.3835 -1.14301e-015 -3.97569e-016 -3.18055e-015 
0 0 0 0 0 -0 -19.5121 89.591 -143.043 4.94372 2.23471 1.71092 -8.88178e-016 7.86299 -2.84217e-014 -6.49438 7.92755 8.92726 3.55271e-015 22.6654 0 2.78743 -1.74755 8.5195 7.10543e-015 22.5723 2.05203 -3.43775 21.2001 -7.89162 0 13.4246 -1.9178 8.85233 17.1555 -8.46838 3.7941 20.1358 -0.319195 -15.3697 38.161 15.6753 12.7665 0 2.84217e-014 -35.0246 23.1803 -7.11121 28.396 1.42109e-014 0 11.7367 -12.4042 -63.5283 28.7929 0 0 13.2254 -6.18983 -8.63099 -3.85764 20.1358 -0.319195 5.97102 34.845 10.2497 -12.7665 0 0 18.4054 21.2434 24.8721 -28.396 0 -2.84217e-014 -30.0869 -32.8087 77.3038 -28.7929 0 -2.84217e-014 -4.34368 -9.48411 -5.6591 9.58901 0 -2.84217e-014 25.8785 -43.9087 0.832425 7.10543e-015 -41.7092 7.10543e-015 -93.8483 54.8672 59.4432 0 -41.5308 0 16.1839 -24.2866 27.395 -7.10543e-015 -6.23286 14.3835 0 1.59028e-015 -0 -9.58901 0 0 -6.28784 -0.002198 -2.67321 -7.10543e-015 -41.7092 0 0.81515 3.56589 -5.39671 -7.10543e-015 -41.5308 2.84217e-014 4.07457 -5.30745 -9.29435 1.42109e-014 -6.23286 14.3835 1.49089e-016 -4.96962e-017 -6.36111e-015 
0 0 0 0 0 -0 -19.4564 89.6097 -142.649 5.05839 2.28505 1.74935 -8.88178e-016 7.86299 0 -6.62898 7.84255 9.09725 3.55271e-015 22.6654 0 2.70992 -1.72439 8.68335 -1.42109e-014 22.5723 2.05203 -3.55211 21.0479 -8.00394 0 13.4246 -1.9178 9.11168 17.1704 -8.58966 3.7941 20.1358 -0.319195 -15.2183 37.8689 15.652 12.7665 1.42109e-014 0 -34.9967 23.0164 -6.72647 28.396 3.55271e-015 0 11.6498 -12.1696 -63.4835 28.7929 0 2.84217e-014 13.0676 -6.00743 -8.69835 -3.85764 20.1358 -0.319195 5.76499 34.7546 10.3344 -12.7665 1.42109e-014 -2.84217e-014 18.4878 20.9581 24.9357 -28.396 0 0 -30.5807 -33.1952 77.977 -28.7929 -1.42109e-014 0 -4.15623 -9.17501 -6.20647 9.58901 0 0 25.6523 -44.3212 0.486592 0 -41.7092 0 -92.1347 54.6207 57.7623 0 -41.5308 0 15.8262 -24.3498 27.518 0 -6.23286 14.3835 7.95139e-016 -1.59028e-015 3.18055e-015 -9.58901 1.42109e-014 0 -6.40844 0.120495 -2.49905 0 -41.7092 0 0.818846 3.7414 -5.31371 0 -41.5308 0 3.97496 -5.54597 -9.65555 0 -6.23286 14.3835 4.72793e-016 1.82866e-016 6.36111e-015 
0 0 0 0 0 -0 -19.3891 89.6199 -142.252 5.16805 2.30916 1.83163 8.88178e-016 7.86299 0 -6.67991 7.80763 9.23882 3.55271e-015 22.6654 -2.84217e-014 2.48265 -1.71398 8.81982 0 22.5723 2.05203 -3.51966 20.9032 -8.12985 0 13.4246 -1.9178 9.31224 17.165 -8.71626 3.7941 20.1358 -0.319195 -15.0332 37.6084 15.6902 12.7665 0 2.84217e-014 -34.9381 22.9309 -6.50213 28.396 0 0 11.6217 -12.0365 -63.306 28.7929 0 0 12.9891 -5.91893 -8.78964 -3.85764 20.1358 -0.319195 5.68121 34.7994 10.3639 -12.7665 0 0 18.5102 20.5414 25.0654 -28.396 0 1.42109e-014 -31.0468 -33.5944 78.615 -28.7929 2.13163e-014 -1.42109e-014 -3.87548 -8.91761 -6.68693 9.58901 0 0 25.3027 -44.7321 0.070255 0 -41.7092 -1.42109e-014 -90.3879 54.3223 56.5238 1.77636e-015 -41.5308 0 15.4315 -24.5144 27.3494 -7.10543e-015 -6.23286 14.3835 -3.97569e-016 0 -6.36111e-015 -9.58901 1.42109e-014 0 -6.48326 0.280247 -2.5923 -7.10543e-015 -41.7092 2.84217e-014 0.710153 3.90783 -5.11822 -7.10543e-015 -41.5308 0 3.9087 -5.68913 -9.85039 -1.42109e-014 -6.23286 14.3835 4.84538e-016 2.48481e-016 -0 
